<svg width="34" height="34" viewBox="0 0 34 34" fill="none" xmlns="http://www.w3.org/2000/svg">
<path fill-rule="evenodd" clip-rule="evenodd" d="M0 17.0001C0 26.3889 7.61163 34 16.9999 34C26.3882 34 33.9998 26.3889 33.9998 17.0001C33.9998 7.61237 26.3876 0.000167312 16.9999 0.000167312C7.6122 0.000167312 0 7.61237 0 17.0001ZM2.54999 17.0001C2.54999 9.02069 9.02052 2.55015 16.9999 2.55015C24.9793 2.55015 31.4498 9.02069 31.4498 17.0001C31.4498 24.9806 24.9799 31.45 16.9999 31.45C9.01991 31.45 2.54999 24.9806 2.54999 17.0001ZM13.5246 22.1403C13.1532 22.6387 13.1928 23.3471 13.6445 23.8007C14.1414 24.2997 14.9486 24.3014 15.4476 23.8046L21.3738 17.9039L21.4979 17.7607C21.8702 17.2608 21.8288 16.55 21.3738 16.0969L15.4476 10.1963L15.3044 10.0731C14.8044 9.70384 14.0962 9.74652 13.6445 10.2001L13.5214 10.3434C13.1521 10.8433 13.1948 11.5516 13.6484 12.0033L18.6659 17.0021L13.6484 21.9976L13.5246 22.1403Z" fill="#BBB1FA"/>
</svg>
