<svg width="34" height="34" viewBox="0 0 34 34" fill="none" xmlns="http://www.w3.org/2000/svg">
<path fill-rule="evenodd" clip-rule="evenodd" d="M33.9998 16.9999C33.9998 7.61107 26.3882 0 16.9999 0C7.61163 0 0 7.61107 0 16.9999C0 26.3876 7.6122 33.9998 16.9999 33.9998C26.3876 33.9998 33.9998 26.3876 33.9998 16.9999ZM31.4498 16.9999C31.4498 24.9793 24.9793 31.4498 16.9999 31.4498C9.02052 31.4498 2.54999 24.9793 2.54999 16.9999C2.54999 9.01943 9.01991 2.54999 16.9999 2.54999C24.9799 2.54999 31.4498 9.01943 31.4498 16.9999ZM20.4752 11.8597C20.8466 11.3613 20.807 10.6529 20.3553 10.1993C19.8585 9.70031 19.0512 9.69857 18.5522 10.1954L12.626 16.0961L12.5019 16.2393C12.1297 16.7392 12.171 17.45 12.626 17.9031L18.5522 23.8037L18.6955 23.9269C19.1954 24.2962 19.9036 24.2535 20.3553 23.7999L20.4785 23.6566C20.8477 23.1567 20.8051 22.4484 20.3514 21.9967L15.3339 16.9979L20.3514 12.0024L20.4752 11.8597Z" fill="#BBB1FA"/>
</svg>
