<svg width="15" height="15" viewBox="0 0 15 15" fill="none" xmlns="http://www.w3.org/2000/svg">
<path fill-rule="evenodd" clip-rule="evenodd" d="M0.807222 8.67978L8.88269 0.763848C9.92167 -0.254616 11.6069 -0.254616 12.6459 0.763848L13.7245 1.82116C14.7635 2.83963 14.7635 4.49154 13.7245 5.51L5.61717 13.4572C5.15359 13.9116 4.52506 14.1666 3.86901 14.1666H0.548784C0.240345 14.1666 -0.00751269 13.9175 0.000174082 13.6152L0.0836929 10.3312C0.100298 9.71052 0.359392 9.11877 0.807222 8.67978ZM12.9484 2.58192L11.8698 1.52461C11.2594 0.926302 10.2691 0.926302 9.65878 1.52461L9.03186 2.13915L12.3218 5.36343L12.9484 4.74924C13.5588 4.15093 13.5588 3.18023 12.9484 2.58192ZM1.58332 9.44055L8.25577 2.89991L11.5457 6.1242L4.84108 12.6964L4.7519 12.7764C4.50559 12.9787 4.19352 13.0907 3.86901 13.0907L1.11121 13.0903L1.18089 10.3587C1.19012 10.0141 1.33438 9.68456 1.58332 9.44055ZM15 13.6287C15 13.3316 14.7543 13.0908 14.4512 13.0908H8.72583L8.65136 13.0957C8.3835 13.1313 8.17705 13.3564 8.17705 13.6287C8.17705 13.9258 8.42274 14.1667 8.72583 14.1667H14.4512L14.5257 14.1618C14.7935 14.1261 15 13.9011 15 13.6287Z" fill="#2E2E5D"/>
</svg>
