<svg width="20" height="20" viewBox="0 0 20 20" fill="none" xmlns="http://www.w3.org/2000/svg">
<path d="M6.64731 18.7733V15.7156C6.64731 14.9351 7.28591 14.3023 8.07366 14.3023H10.9533C11.3316 14.3023 11.6944 14.4512 11.9618 14.7163C12.2293 14.9813 12.3796 15.3408 12.3796 15.7156V18.7733C12.3772 19.0978 12.5057 19.4099 12.7364 19.6402C12.9671 19.8705 13.2811 20 13.6086 20H15.5732C16.4907 20.0023 17.3715 19.6428 18.0212 19.0008C18.6708 18.3588 19.0359 17.487 19.0359 16.5778V7.86686C19.0359 7.13246 18.7073 6.43584 18.1388 5.96467L11.4556 0.675869C10.2931 -0.251438 8.62738 -0.221498 7.49953 0.746979L0.968839 5.96467C0.373445 6.42195 0.0175855 7.12064 0 7.86686V16.5689C0 18.4639 1.55031 20 3.4627 20H5.38244C6.06266 20 6.61547 19.4562 6.6204 18.7822L6.64731 18.7733Z" fill="#4838D1"/>
</svg>
