<svg width="71" height="70" viewBox="0 0 71 70" fill="none" xmlns="http://www.w3.org/2000/svg">
<path fill-rule="evenodd" clip-rule="evenodd" d="M36 51C44.8366 51 52 43.8366 52 35C52 26.1634 44.8366 19 36 19C27.1634 19 20 26.1634 20 35C20 43.8366 27.1634 51 36 51ZM36 59C49.2548 59 60 48.2548 60 35C60 21.7452 49.2548 11 36 11C22.7452 11 12 21.7452 12 35C12 48.2548 22.7452 59 36 59Z" fill="white"/>
<path d="M70 62C70 66.4183 66.4183 70 62 70C57.5817 70 54 66.4183 54 62C54 57.5817 57.5817 54 62 54C66.4183 54 70 57.5817 70 62Z" fill="white"/>
</svg>
