<svg width="161" height="145" viewBox="0 0 161 145" fill="none" xmlns="http://www.w3.org/2000/svg">
<path d="M36 65C36 40.1472 56.1472 20 81 20C105.853 20 126 40.1472 126 65V95C126 119.853 105.853 140 81 140C56.1472 140 36 119.853 36 95V65Z" stroke="white" stroke-width="10" stroke-linejoin="round"/>
<path d="M21 62V62C21 30.5198 46.5198 5 78 5H84C115.48 5 141 30.5198 141 62V62" stroke="white" stroke-width="10" stroke-linecap="round" stroke-linejoin="round"/>
<path d="M141 74V94" stroke="white" stroke-width="10" stroke-linecap="round"/>
<path d="M111 74V94" stroke="white" stroke-width="10" stroke-linecap="round"/>
<path d="M5 79V89" stroke="url(#paint0_linear_304_3057)" stroke-width="10" stroke-linecap="round"/>
<path d="M5 79V89" stroke="url(#paint1_linear_304_3057)" stroke-width="10" stroke-linecap="round"/>
<path d="M5 79V89" stroke="white" stroke-width="10" stroke-linecap="round"/>
<path d="M96 79V89" stroke="white" stroke-width="10" stroke-linecap="round"/>
<path d="M81 79V89" stroke="white" stroke-width="10" stroke-linecap="round"/>
<path d="M156 79V89" stroke="white" stroke-width="10" stroke-linecap="round"/>
<path d="M66 79V89" stroke="white" stroke-width="10" stroke-linecap="round"/>
<path d="M21 74V94" stroke="url(#paint2_linear_304_3057)" stroke-width="10" stroke-linecap="round"/>
<path d="M21 74V94" stroke="url(#paint3_linear_304_3057)" stroke-width="10" stroke-linecap="round"/>
<path d="M21 74V94" stroke="white" stroke-width="10" stroke-linecap="round"/>
<path d="M51 74V94" stroke="white" stroke-width="10" stroke-linecap="round"/>
<defs>
<linearGradient id="paint0_linear_304_3057" x1="5.5" y1="79" x2="5.5" y2="89" gradientUnits="userSpaceOnUse">
<stop stop-color="#1B1E25" stop-opacity="0.93"/>
<stop offset="1"/>
</linearGradient>
<linearGradient id="paint1_linear_304_3057" x1="5.5" y1="79" x2="5.5" y2="89" gradientUnits="userSpaceOnUse">
<stop stop-color="#1B1E25" stop-opacity="0.93"/>
<stop offset="1"/>
</linearGradient>
<linearGradient id="paint2_linear_304_3057" x1="21.5" y1="74" x2="21.5" y2="94" gradientUnits="userSpaceOnUse">
<stop stop-color="#1B1E25" stop-opacity="0.93"/>
<stop offset="1"/>
</linearGradient>
<linearGradient id="paint3_linear_304_3057" x1="21.5" y1="74" x2="21.5" y2="94" gradientUnits="userSpaceOnUse">
<stop stop-color="#1B1E25" stop-opacity="0.93"/>
<stop offset="1"/>
</linearGradient>
</defs>
</svg>
