<svg width="24" height="24" viewBox="0 0 24 24" fill="none" xmlns="http://www.w3.org/2000/svg">
<g clip-path="url(#clip0_303_705)">
<path d="M24 4.63596C23.1169 5.02756 22.1679 5.29221 21.1719 5.41127C22.1887 4.8019 22.9693 3.83693 23.3369 2.68718C22.3704 3.26073 21.3129 3.66483 20.2103 3.88202C19.312 2.92512 18.0324 2.32709 16.6162 2.32709C13.8968 2.32709 11.6921 4.53171 11.6921 7.25084C11.6921 7.63681 11.7357 8.01256 11.8196 8.37302C7.72744 8.16762 4.09931 6.2074 1.67072 3.2284C1.24697 3.95562 1.00416 4.80152 1.00416 5.70377C1.00416 7.41209 1.8735 8.91912 3.19462 9.80215C2.4127 9.77766 1.64798 9.56647 0.964313 9.18621C0.964031 9.20684 0.964031 9.22746 0.964031 9.24818C0.964031 11.6338 2.66128 13.624 4.91372 14.0763C4.18864 14.2735 3.42809 14.3024 2.69016 14.1607C3.31669 16.1169 5.13516 17.5404 7.28972 17.5802C5.60456 18.9008 3.48141 19.688 1.17459 19.688C0.777094 19.688 0.385219 19.6646 0 19.6192C2.17903 21.0162 4.76719 21.8314 7.54781 21.8314C16.6047 21.8314 21.5573 14.3285 21.5573 7.82187C21.5573 7.60831 21.5526 7.39596 21.543 7.18484C22.507 6.48798 23.339 5.62485 24 4.63596Z" fill="#55ACEE"/>
</g>
<defs>
<clipPath id="clip0_303_705">
<rect width="24" height="24" fill="white"/>
</clipPath>
</defs>
</svg>
