<svg width="24" height="24" viewBox="0 0 24 24" fill="none" xmlns="http://www.w3.org/2000/svg">
<g clip-path="url(#clip0_303_701)">
<path d="M22.6754 24.0001C23.4068 24.0001 24 23.407 24 22.6755V1.32459C24 0.592969 23.4068 0 22.6754 0H1.32459C0.592875 0 0 0.592969 0 1.32459V22.6755C0 23.407 0.592875 24.0001 1.32459 24.0001H22.6754Z" fill="#395185"/>
<path d="M16.5596 24.0001V14.706H19.6793L20.1463 11.0839H16.5596V8.77132C16.5596 7.72263 16.8508 7.00797 18.3547 7.00797L20.2727 7.00713V3.7676C19.9408 3.72344 18.8023 3.62482 17.4778 3.62482C14.7124 3.62482 12.8192 5.31279 12.8192 8.41272V11.0839H9.69153V14.706H12.8192V24.0001H16.5596Z" fill="white"/>
</g>
<defs>
<clipPath id="clip0_303_701">
<rect width="24" height="24" fill="white"/>
</clipPath>
</defs>
</svg>
