<svg width="18" height="20" viewBox="0 0 18 20" fill="none" xmlns="http://www.w3.org/2000/svg">
<path fill-rule="evenodd" clip-rule="evenodd" d="M11.1826 0.0117797C11.1392 0.00403936 11.0946 0 11.049 0C11.0034 0 10.9588 0.00403936 10.9154 0.0117797H4.61521C2.11098 0.0117797 0 2.04335 0 4.52128V15.3072C0 17.9255 2.01825 20 4.61521 20H12.6586C15.1286 20 17.1681 17.8233 17.1681 15.3072V6.07881C17.1681 5.88388 17.0927 5.69649 16.9577 5.55587L11.8582 0.243949C11.7158 0.0956246 11.5191 0.0117797 11.3135 0.0117797H11.1826ZM10.2939 1.52119L4.61521 1.52199C2.93237 1.52199 1.51021 2.89065 1.51021 4.52128V15.3072C1.51021 17.1006 2.86174 18.4897 4.61521 18.4897H12.6586C14.2718 18.4897 15.6579 17.0104 15.6579 15.3072L15.6572 7.03063L14.7758 7.03364C14.4399 7.03323 14.0578 7.03252 13.6329 7.03155C11.8513 7.02778 10.3974 5.63137 10.2992 3.87358L10.2939 3.68391V1.52119ZM14.8308 5.52117L13.6362 5.52134C12.6239 5.5192 11.8041 4.69722 11.8041 3.68391V2.36846L14.8308 5.52117ZM10.8577 12.8948C11.2748 12.8948 11.6128 13.2329 11.6128 13.6499C11.6128 14.0322 11.3288 14.3481 10.9602 14.3981L10.8577 14.405H5.42398C5.00695 14.405 4.66887 14.0669 4.66887 13.6499C4.66887 13.2676 4.95295 12.9517 5.32152 12.9017L5.42398 12.8948H10.8577ZM9.55744 8.66399C9.55744 8.24696 9.21936 7.90889 8.80233 7.90889H5.42348L5.32101 7.91578C4.95245 7.96578 4.66837 8.28171 4.66837 8.66399C4.66837 9.08103 5.00644 9.4191 5.42348 9.4191H8.80233L8.90479 9.41221C9.27336 9.3622 9.55744 9.04627 9.55744 8.66399Z" fill="#BBB1FA"/>
</svg>
