<svg width="60" height="60" viewBox="0 0 60 60" fill="none" xmlns="http://www.w3.org/2000/svg">
<path fill-rule="evenodd" clip-rule="evenodd" d="M0 30.0174C0 13.4588 13.4653 0 30 0C46.5347 0 60 13.4588 60 30.0174C60 46.5412 46.5347 60 30 60C13.4653 60 0 46.5412 0 30.0174ZM41.0039 33.0535C41.3224 32.7352 41.7278 32.2431 41.8147 32.1273C42.278 31.5195 42.5097 30.767 42.5097 30.0174C42.5097 29.1751 42.249 28.3936 41.7568 27.7569C41.7164 27.7165 41.6374 27.6306 41.5345 27.5185C41.3418 27.3089 41.0654 27.0079 40.8012 26.7438C38.4266 24.1968 32.2297 20.0289 28.9865 18.7554C28.4942 18.5557 27.249 18.1187 26.583 18.0897C25.9459 18.0897 25.3378 18.2344 24.7587 18.5239C24.0348 18.9291 23.4556 19.5658 23.1371 20.3184C22.9344 20.8394 22.6158 22.4023 22.6158 22.4313C22.2973 24.1389 22.1236 26.9175 22.1236 29.9855C22.1236 32.9117 22.2973 35.5716 22.5579 37.3082C22.5651 37.3154 22.59 37.4396 22.6287 37.6326C22.7463 38.2192 22.9914 39.4412 23.2529 39.9421C23.89 41.1577 25.1351 41.9103 26.4672 41.9103H26.583C27.4517 41.8813 29.2761 41.1288 29.2761 41.0999C32.3456 39.8263 38.3977 35.8611 40.8301 33.2272L41.0039 33.0535Z" fill="white"/>
</svg>
