<svg width="21" height="20" viewBox="0 0 21 20" fill="none" xmlns="http://www.w3.org/2000/svg">
<path fill-rule="evenodd" clip-rule="evenodd" d="M0 8.66993C0 3.88166 3.8476 0 8.59386 0C10.8731 0 13.059 0.913436 14.6706 2.53936C16.2823 4.16529 17.1877 6.37052 17.1877 8.66993C17.1877 13.4582 13.3401 17.3399 8.59386 17.3399C3.8476 17.3399 0 13.4582 0 8.66993ZM17.0455 15.6543L19.605 17.7164H19.6495C20.1673 18.2388 20.1673 19.0858 19.6495 19.6082C19.1316 20.1306 18.2921 20.1306 17.7743 19.6082L15.6502 17.1785C15.4494 16.9766 15.3366 16.7024 15.3366 16.4164C15.3366 16.1304 15.4494 15.8562 15.6502 15.6543C16.0375 15.2704 16.6583 15.2704 17.0455 15.6543Z" fill="white"/>
</svg>
