<svg width="20" height="20" viewBox="0 0 20 20" fill="none" xmlns="http://www.w3.org/2000/svg">
<path fill-rule="evenodd" clip-rule="evenodd" d="M14.334 0H5.665C2.26743 0 0 2.4326 0 5.916V14.084C0 17.5711 2.2607 20 5.665 20H14.333C17.7376 20 20 17.5707 20 14.084V5.916C20 2.4295 17.7378 0 14.334 0ZM5.665 1.5H14.334C16.8845 1.5 18.5 3.23496 18.5 5.916V14.084C18.5 16.7652 16.8844 18.5 14.333 18.5H5.665C3.11414 18.5 1.5 16.7657 1.5 14.084V5.916C1.5 3.23837 3.12034 1.5 5.665 1.5ZM10.7428 5.53173C10.6931 5.16565 10.3793 4.8835 9.9996 4.8835C9.58539 4.8835 9.2496 5.21929 9.2496 5.6335V9.9945L9.25796 10.1062C9.29109 10.3263 9.42093 10.5226 9.61535 10.6386L13.0063 12.6616L13.0973 12.7079C13.4371 12.8528 13.8402 12.7278 14.0347 12.4018L14.0809 12.3108C14.2259 11.971 14.1009 11.5679 13.7748 11.3734L10.7493 9.5678L10.7496 5.6335L10.7428 5.53173Z" fill="#BBB1FA"/>
</svg>
