<svg width="20" height="21" viewBox="0 0 20 21" fill="none" xmlns="http://www.w3.org/2000/svg">
<path fill-rule="evenodd" clip-rule="evenodd" d="M0 11.2286C0 8.84936 1.87393 6.90745 4.22624 6.79843L4.435 6.7936H5.368C5.78221 6.7936 6.118 7.12938 6.118 7.5436C6.118 7.92329 5.83585 8.23709 5.46977 8.28675L5.368 8.2936H4.435C2.8721 8.2936 1.59426 9.51562 1.50498 11.0562L1.5 11.2286L1.5 16.1036C1.5 17.6657 2.72213 18.9433 4.26258 19.0326L4.435 19.0376H15.565C17.1278 19.0376 18.4057 17.8157 18.495 16.2759L18.5 16.1036V11.2186C18.5 9.66124 17.2824 8.38756 15.7478 8.29856L15.576 8.2936H14.633C14.2188 8.2936 13.883 7.95781 13.883 7.5436C13.883 7.1639 14.1652 6.85011 14.5312 6.80044L14.633 6.7936H15.576C17.9472 6.7936 19.8831 8.6604 19.9949 11.0042L20 11.2186V16.1036C20 18.482 18.1259 20.4238 15.7737 20.5328L15.565 20.5376H4.435C2.05594 20.5376 0.113862 18.6638 0.00482809 16.3123L0 16.1036L0 11.2286ZM9.45817 0.231413C9.5947 0.0888634 9.78693 9.72748e-05 9.9999 9.72748e-05C10.215 9.72748e-05 10.4089 0.090641 10.5457 0.235693L13.4472 3.14916C13.7395 3.44265 13.7385 3.91752 13.445 4.20982C13.1782 4.47553 12.7615 4.49889 12.4684 4.28043L12.3844 4.20764L10.7499 2.56757L10.7499 12.7911C10.7499 13.2053 10.4141 13.5411 9.9999 13.5411C9.6202 13.5411 9.30641 13.2589 9.25675 12.8929L9.2499 12.7911L9.2499 2.56589L7.61631 4.20755C7.35064 4.47441 6.93403 4.49954 6.63993 4.28234L6.55565 4.20991C6.28879 3.94423 6.26366 3.52762 6.48086 3.23353L6.55329 3.14925L9.45817 0.231413Z" fill="#BBB1FA"/>
</svg>
